<?xml version="1.0" encoding="UTF-8" standalone="no"?>
<!DOCTYPE svg PUBLIC "-//W3C//DTD SVG 1.1//EN" "http://www.w3.org/Graphics/SVG/1.1/DTD/svg11.dtd">
<svg width="100%" height="100%" viewBox="0 0 1200 800" version="1.1" xmlns="http://www.w3.org/2000/svg" xmlns:xlink="http://www.w3.org/1999/xlink" xml:space="preserve" xmlns:serif="http://www.serif.com/" style="fill-rule:evenodd;clip-rule:evenodd;stroke-linejoin:round;stroke-miterlimit:2;">
    <path d="M358.774,384.291C314.153,357.791 240.551,355.355 197.955,368.283C191.112,370.359 183.88,366.498 181.808,359.657C179.735,352.813 183.592,345.584 190.437,343.505C239.336,328.662 320.62,331.529 371.99,362.021C378.144,365.675 380.159,373.621 376.513,379.762C372.864,385.915 364.911,387.945 358.773,384.291M357.312,423.539C354.182,428.62 347.539,430.213 342.466,427.093C305.267,404.228 248.54,397.602 204.529,410.962C198.822,412.685 192.794,409.469 191.06,403.771C189.352,398.106 192.597,392.037 198.257,390.313C248.533,375.055 311.035,382.444 353.761,408.702C358.835,411.826 360.431,418.471 357.312,423.539M340.373,461.232C338.811,463.799 336.015,465.371 333.009,465.371C331.422,465.371 329.865,464.932 328.51,464.104C296.004,444.237 255.089,439.75 206.903,450.757C206.273,450.901 205.628,450.974 204.981,450.974C200.972,450.974 197.467,448.178 196.575,444.27C196.429,443.637 196.356,442.99 196.356,442.34C196.356,438.331 199.153,434.827 203.062,433.938C255.793,421.885 301.024,427.072 337.511,449.368C340.074,450.934 341.642,453.728 341.642,456.732C341.642,458.32 341.203,459.878 340.375,461.232M276.887,261.572C200.439,261.572 138.462,323.547 138.462,399.998C138.462,476.455 200.439,538.428 276.888,538.428C353.341,538.428 415.318,476.455 415.318,399.998C415.318,323.548 353.342,261.572 276.888,261.572M515.075,389.365C491.174,383.665 486.921,379.664 486.921,371.259C486.921,363.318 494.396,357.976 505.514,357.976C516.291,357.976 526.977,362.034 538.182,370.389C538.521,370.641 538.945,370.742 539.364,370.676C539.782,370.614 540.155,370.383 540.397,370.038L552.067,353.586C552.547,352.909 552.417,351.975 551.769,351.458C538.435,340.759 523.419,335.557 505.868,335.557C480.061,335.557 462.035,351.041 462.035,373.202C462.035,396.964 477.585,405.376 504.456,411.872C527.326,417.141 531.187,421.552 531.187,429.443C531.187,438.186 523.383,443.621 510.822,443.621C496.871,443.621 485.491,438.922 472.761,427.898C472.44,427.632 472.029,427.498 471.612,427.524C471.191,427.558 470.806,427.754 470.538,428.077L457.453,443.649C456.904,444.295 456.973,445.261 457.608,445.819C472.419,459.042 490.635,466.027 510.291,466.027C538.101,466.027 556.069,450.831 556.069,427.314C556.069,407.438 544.196,396.446 515.075,389.365M639.172,416.003C639.172,432.785 628.832,444.497 614.03,444.497C599.397,444.497 588.358,432.253 588.358,416.003C588.358,399.753 599.397,387.508 614.031,387.508C628.595,387.508 639.172,399.489 639.172,416.003M618.985,365.793C606.931,365.793 597.045,370.541 588.892,380.268L588.892,369.319C588.892,368.455 588.191,367.75 587.327,367.75L565.927,367.75C565.062,367.75 564.363,368.455 564.363,369.319L564.363,490.983C564.363,491.847 565.062,492.551 565.927,492.551L587.325,492.551C588.191,492.551 588.892,491.847 588.892,490.983L588.892,452.579C597.046,461.731 606.935,466.201 618.985,466.201C641.381,466.201 664.054,448.96 664.054,416.003C664.054,383.038 641.381,365.793 618.985,365.793M722.171,444.672C706.829,444.672 695.263,432.346 695.263,416.003C695.263,399.59 706.428,387.681 721.816,387.681C737.256,387.681 748.901,400.006 748.901,416.361C748.901,432.77 737.659,444.672 722.171,444.672M722.171,365.793C693.327,365.793 670.731,388.003 670.731,416.362C670.731,444.412 693.172,466.387 721.816,466.387C750.762,466.387 773.428,444.253 773.428,416.003C773.428,387.848 750.918,365.793 722.171,365.793M835.021,367.75L811.472,367.75L811.472,343.672C811.472,342.808 810.775,342.104 809.91,342.104L788.512,342.104C787.647,342.104 786.943,342.808 786.943,343.672L786.943,367.75L776.653,367.75C775.791,367.75 775.093,368.455 775.093,369.319L775.093,387.71C775.093,388.574 775.791,389.279 776.653,389.279L786.943,389.279L786.943,436.87C786.943,456.102 796.515,465.856 815.394,465.856C823.07,465.856 829.44,464.27 835.443,460.867C835.929,460.594 836.232,460.068 836.232,459.509L836.232,441.994C836.233,441.993 836.233,441.992 836.233,441.991C836.233,441.132 835.525,440.424 834.665,440.424C834.422,440.424 834.182,440.481 833.965,440.589C829.843,442.664 825.857,443.621 821.403,443.621C814.537,443.621 811.472,440.504 811.472,433.517L811.472,389.279L835.023,389.279C835.888,389.279 836.583,388.574 836.583,387.71L836.583,369.319C836.583,368.455 835.888,367.75 835.023,367.75M917.072,367.843L917.072,364.887C917.072,356.186 920.407,352.307 927.888,352.307C932.352,352.307 935.934,353.193 939.948,354.532C940.107,354.585 940.273,354.612 940.441,354.612C941.299,354.612 942.005,353.906 942.005,353.047C942.005,353.046 942.005,353.044 942.005,353.042L942.005,335.006C942.008,334.319 941.557,333.707 940.9,333.506C936.66,332.244 931.235,330.948 923.112,330.948C903.344,330.948 892.897,342.081 892.897,363.127L892.897,367.656L882.617,367.656C881.757,367.658 881.049,368.363 881.045,369.223L881.045,387.71C881.045,388.573 881.751,389.28 882.617,389.28L892.897,389.28L892.897,462.688C892.897,463.552 893.594,464.256 894.457,464.256L915.857,464.256C916.721,464.256 917.425,463.552 917.425,462.688L917.425,389.279L937.407,389.279L968.017,462.667C964.54,470.378 961.124,471.912 956.46,471.912C952.688,471.912 948.719,470.786 944.659,468.566C944.276,468.359 943.826,468.317 943.413,468.449C943.003,468.593 942.66,468.897 942.487,469.293L935.234,485.207C934.889,485.949 935.186,486.843 935.906,487.231C943.478,491.332 950.316,493.083 958.762,493.083C974.565,493.083 983.299,485.723 991,465.92L1028.13,369.978C1028.2,369.797 1028.24,369.604 1028.24,369.409C1028.24,368.552 1027.53,367.846 1026.67,367.842L1004.4,367.842C1003.73,367.843 1003.13,368.265 1002.91,368.893L980.091,434.083L955.092,368.85C954.863,368.244 954.279,367.841 953.631,367.842L917.072,367.843ZM869.505,367.75L848.103,367.75C847.24,367.75 846.536,368.455 846.536,369.319L846.536,462.687C846.536,463.551 847.24,464.255 848.103,464.255L869.505,464.255C870.368,464.255 871.073,463.551 871.073,462.687L871.073,369.319C871.073,368.455 870.367,367.75 869.505,367.75M858.914,325.237C850.435,325.237 843.556,332.1 843.556,340.578C843.556,349.061 850.435,355.933 858.914,355.933C867.389,355.933 874.262,349.061 874.262,340.578C874.262,332.1 867.389,325.237 858.914,325.237M1047.28,377.037L1043.36,377.037L1043.36,382.037L1047.28,382.037C1049.23,382.037 1050.4,381.08 1050.4,379.537C1050.4,377.909 1049.23,377.037 1047.28,377.037M1049.82,384.17L1054.08,390.134L1050.49,390.134L1046.65,384.664L1043.35,384.664L1043.35,390.134L1040.35,390.134L1040.35,374.327L1047.4,374.327C1051.07,374.327 1053.49,376.205 1053.49,379.368C1053.49,381.959 1051.99,383.544 1049.82,384.17M1046.48,369.065C1038.76,369.065 1032.93,375.198 1032.93,382.707C1032.93,390.212 1038.72,396.263 1046.4,396.263C1054.11,396.263 1059.96,390.134 1059.96,382.621C1059.96,375.114 1054.15,369.065 1046.48,369.065M1046.4,397.77C1037.93,397.77 1031.34,390.967 1031.34,382.707C1031.34,374.448 1038.02,367.567 1046.48,367.567C1054.95,367.567 1061.54,374.368 1061.54,382.621C1061.54,390.883 1054.87,397.77 1046.4,397.77" style="fill:white;fill-rule:nonzero;"/>
</svg>
